<svg width="187" height="40" viewBox="0 0 187 40" fill="none" xmlns="http://www.w3.org/2000/svg">
<path d="M63.5084 24.8223C62.4912 24.8223 61.5796 24.6572 60.7737 24.3269C59.9678 23.9966 59.3204 23.5078 58.8316 22.8604C58.356 22.2131 58.105 21.4336 58.0785 20.522H61.6853C61.7381 21.0372 61.9165 21.4336 62.2203 21.711C62.5242 21.9752 62.9205 22.1074 63.4094 22.1074C63.9114 22.1074 64.3077 21.9951 64.5984 21.7705C64.889 21.5327 65.0344 21.209 65.0344 20.7994C65.0344 20.4559 64.9155 20.1719 64.6777 19.9473C64.4531 19.7227 64.169 19.5377 63.8255 19.3924C63.4952 19.2471 63.0196 19.0819 62.3987 18.897C61.5003 18.6195 60.7671 18.3421 60.199 18.0647C59.6309 17.7872 59.1421 17.3777 58.7325 16.836C58.3229 16.2943 58.1182 15.5875 58.1182 14.7155C58.1182 13.4208 58.5872 12.4101 59.5252 11.6835C60.4632 10.9437 61.6853 10.5738 63.1914 10.5738C64.7239 10.5738 65.9592 10.9437 66.8972 11.6835C67.8352 12.4101 68.3372 13.4274 68.4033 14.7354H64.7371C64.7107 14.2862 64.5455 13.9361 64.2417 13.6851C63.9378 13.4208 63.5481 13.2887 63.0725 13.2887C62.6629 13.2887 62.3326 13.401 62.0816 13.6256C61.8306 13.837 61.7051 14.1475 61.7051 14.557C61.7051 15.0062 61.9165 15.3563 62.3392 15.6073C62.762 15.8583 63.4226 16.1292 64.321 16.4198C65.2193 16.7237 65.946 17.0143 66.5008 17.2918C67.0689 17.5692 67.5578 17.9722 67.9673 18.5006C68.3769 19.0291 68.5816 19.7095 68.5816 20.5418C68.5816 21.3345 68.3769 22.0545 67.9673 22.7019C67.571 23.3492 66.9897 23.8645 66.2234 24.2476C65.4571 24.6307 64.5522 24.8223 63.5084 24.8223ZM82.6961 24.6836L78.0193 18.5403V24.6836H74.6305V10.7719H78.0193V16.8756L82.6565 10.7719H86.6398L81.2495 17.589L86.8379 24.6836H82.6961ZM104.342 10.7719L99.5262 20.086V24.6836H96.1375V20.086L91.3219 10.7719H95.1664L97.8615 16.5982L100.537 10.7719H104.342ZM125.425 10.7719V24.6836H122.037V16.3406L118.925 24.6836H116.19L113.059 16.3207V24.6836H109.671V10.7719H113.674L117.578 20.4031L121.442 10.7719H125.425ZM140.486 22.2263H135.294L134.461 24.6836H130.914L135.948 10.7719H139.871L144.905 24.6836H141.318L140.486 22.2263ZM139.614 19.6104L137.89 14.5174L136.185 19.6104H139.614ZM160.408 10.7719V13.4869H156.722V24.6836H153.333V13.4869H149.647V10.7719H160.408ZM169.461 13.4869V16.3009H173.999V18.9168H169.461V21.9686H174.594V24.6836H166.072V10.7719H174.594V13.4869H169.461Z" fill="#0071BB"/>
<g clip-path="url(#clip0_54_795)">
<path fill-rule="evenodd" clip-rule="evenodd" d="M30.0837 16.7891C30.0886 17.2041 29.9493 17.6221 29.6505 17.954L25.742 22.2934L27.8782 30.2223L27.0399 31.1531L22.91 25.4373L20.9548 27.6076C20.8757 27.6956 20.7971 27.7782 20.7186 27.857L21.6955 30.2614L21.3157 30.6825L19.6109 29.1594L19.2452 28.8324L19.1856 28.7793L9.13257 39.863C17.8178 40.2701 22.2791 40.1356 27.7481 34.1051L47.9892 11.7896C39.4869 11.4792 34.7641 11.9871 30.0837 16.7891Z" fill="#00C6FF"/>
<path fill-rule="evenodd" clip-rule="evenodd" d="M17.3491 27.1384L16.7035 26.562L15.2773 25.2883L15.6578 24.8666L18.1634 25.5731C18.2321 25.487 18.3058 25.4008 18.3855 25.3122L20.3401 23.1413L14.1881 19.6728L15.0263 18.742L23.1721 19.9979L27.0806 15.6586C27.407 15.2955 27.8556 15.1079 28.3103 15.0932L41.7969 0.0728154C32.9429 -0.249888 28.1876 0.310565 23.3108 5.68713L0.00012207 31.6471C8.02257 32.0236 12.441 31.9337 17.3791 27.1659L17.3491 27.139V27.1384Z" fill="#0071BB"/>
</g>
<defs>
<clipPath id="clip0_54_795">
<rect width="47.9892" height="40" fill="white"/>
</clipPath>
</defs>
</svg>
